<?xml version="1.0" encoding="UTF-8"?>
<svg id="Layer_1" data-name="Layer 1" xmlns="http://www.w3.org/2000/svg" viewBox="0 0 783.09 537.05">
  <defs>
    <style>
      .cls-1 {
        fill: #fff;
      }
    </style>
  </defs>
  <path class="cls-1" d="M182.73,245.91c64.26-1.5,118.6,49.41,163.7,91.02,23.97,22.12,47.31,43.63,72.5,64.41,54,44.56,122.97,86.47,195.04,78.07,76.97-8.97,127.53-83.43,111.47-158.27-11.72-54.62-57.85-92.91-113.84-94.47-28.13-.78-55.33,7.11-79.73,21.56-16.28,9.64-31.14,20.21-44.41,33.65l-38.76,39.24-40.66,44.56-13.77-12.45,48.97-61.56c30.3-38.09,65.06-74.83,109.58-95.44,30.53-14.13,63.82-19.55,97.08-13.92,61.6,10.42,110.65,56.1,126.84,116.46,19.77,73.72-7.5,157.68-69.45,202.96-41.88,30.61-94.46,41.74-145.44,31.8-45.91-8.95-87.78-33.97-123.32-63.71l-45.9-42.11-45.78-46.24c-31.55-31.87-66.5-68.34-104.54-91.41-15.05-9.12-30.81-15.59-48.03-19-37.03-6.75-72.22,3.84-99.83,30.58,16.26-34.22,51.09-54.84,88.31-55.71ZM709.94,471.18c-27.68,18.06-57.89,29.61-90.95,31.54-21.1,1.2-40.99-1.18-61.46-6.09-23.96-5.64-45.41-15.39-67.86-26.41,10.86,9.84,23,16.65,35.51,23.99,18.64,9.78,37.86,16.73,58.91,19.76,46.51,6.71,93.26-8.61,125.85-42.79Z"/>
  <path class="cls-1" d="M304.04,465.38c-39.67,33.79-87.16,55.39-140.14,52.05-51.23-3.23-98.13-29.75-126.44-72.59-22.83-34.54-32.81-76.71-26.64-117.55,9.7-64.3,51.65-117.78,111.18-142.94,15.16-6.41,30.31-10.28,46.18-13.82-39.58-2.25-77.72,9.98-109.83,32.13-24.86,17.16-43.81,39.46-58.34,66.27,9.58-63.86,55.84-114.37,117.84-131.59-27.16-4.26-53.93,1.48-78.29,12.42l-25.43,13.88c25.46-34.24,65.03-53.38,106.53-56.61,19.02-1.48,36.43,1.33,55.87,4.11-10.72-6.35-21.75-10.58-33.3-15.08C100.69,79.52,63.78,54.03,50.41,8.77c28.31,36.12,65.56,52.08,108.36,62.66,15.9,3.93,30.75,8.07,46.27,13.74-13.23-9.36-26.22-17.83-37.04-29.8-14.03-15.52-23.94-34.01-26.06-55.37,12.76,22.23,30.46,39.88,52.35,52.98l29.12,15.91c18.1,9.89,35.38,20.36,49.58,35.29,23.62,24.84,21.29,41.25,27.84,48.34,14.36,15.53,31.34,28.02,50.96,36.28,4.5-3.52,5.9-7.98,6.39-13.89,10.72,13.67,10.68,31.69-1.11,44.76-13.49,14.96-33.55,22.39-53.44,20.42,4.2-3.05,7.98-5.4,9.5-9.58,1.4-3.85-1.22-8.62-4.91-10.62-23.33-12.66-48.81-20.38-74.73-23.39-89.89-10.45-168.03,57.04-170.52,147.31-1.48,53.65,29.62,103.38,79.44,125.16,32.37,14.15,68.53,14.91,101.93,2.77,37.46-13.62,68.16-39.82,97.05-67.2l12.15,12.08c-16.01,17.28-31.72,33.6-49.51,48.76ZM267.45,160.66l16.94,1.62c-13.26-17.27-31.61-28.65-52.76-35.08,19.4,15.85,10.92,31.09,35.81,33.47Z"/>
</svg>